<?xml version="1.0" standalone="no"?>
<!DOCTYPE svg PUBLIC "-//W3C//DTD SVG 20010904//EN"
 "http://www.w3.org/TR/2001/REC-SVG-20010904/DTD/svg10.dtd">
<svg version="1.0" xmlns="http://www.w3.org/2000/svg"
 width="1080.000000pt" height="1080.000000pt" viewBox="0 0 1080.000000 1080.000000"
 preserveAspectRatio="xMidYMid meet">
<metadata>
Created by potrace 1.11, written by Peter Selinger 2001-2013
</metadata>
<g transform="translate(0.000000,1080.000000) scale(0.100000,-0.100000)"
fill="#000000" stroke="none">
<path d="M0 5400 l0 -5400 5400 0 5400 0 0 5400 0 5400 -5400 0 -5400 0 0
-5400z m4761 3760 c291 -15 495 -48 689 -111 101 -33 246 -101 314 -148 211
-146 344 -377 403 -706 14 -76 17 -214 23 -865 5 -475 12 -795 18 -828 61
-303 173 -456 400 -548 89 -36 165 -53 307 -70 171 -20 203 -28 311 -80 112
-53 188 -120 235 -206 34 -63 34 -63 34 -198 0 -135 0 -135 -34 -198 -47 -86
-123 -153 -235 -206 -108 -52 -140 -60 -311 -80 -442 -52 -625 -212 -707 -618
-6 -33 -13 -353 -18 -828 -6 -651 -9 -789 -23 -865 -50 -278 -155 -491 -308
-629 -73 -66 -121 -97 -225 -149 -153 -77 -298 -118 -550 -158 -129 -20 -182
-22 -717 -26 -648 -5 -662 -4 -798 64 -92 46 -196 143 -234 220 -27 52 -30 68
-30 153 0 84 3 102 28 151 15 31 50 80 79 108 132 133 307 190 578 191 176 0
428 42 511 86 117 60 175 189 198 435 6 63 11 343 11 626 0 555 6 650 55 833
31 116 106 273 173 361 145 191 404 354 752 473 84 29 148 56 142 60 -6 3 -71
27 -144 52 -244 84 -474 207 -617 333 -141 123 -254 309 -306 501 -49 185 -55
276 -55 863 0 591 -6 682 -55 835 -63 198 -204 259 -650 283 -245 12 -325 27
-426 75 -129 62 -221 152 -261 256 -29 76 -22 192 16 269 71 143 258 264 448
288 91 12 759 13 979 1z"/>
</g>
</svg>
