<svg version="1" xmlns="http://www.w3.org/2000/svg" width="402.667" height="402.667" viewBox="0 0 302.000000 302.000000"><path d="M84.2 1.5C68.4 5.1 62.4 19.9 72.7 29.6c4.6 4.4 10.8 6.4 20.5 6.9 11.8.5 16.5 1.3 21.6 3.5 3.4 1.6 4.7 2.9 6.4 6.7 1.9 4.3 2.2 7 2.5 25.3.4 24.6 1 38.8 1.6 41.5 4.6 18 16.6 28.8 41.2 37 1.6.5.7 1.2-4.3 3.1-20.5 7.7-31.2 17.2-35.5 31.4-2.4 8.1-2.6 10.3-2.8 36.4-.3 31.8-1.2 36.7-7.7 40.4-4.5 2.5-11.4 3.8-21.3 4.1-10.3.3-16.8 2.3-21.6 6.8-4.6 4.4-6.1 7.5-5.8 11.9.4 4.8 2.6 8.5 7.3 12.1 6.8 5.2 9.9 5.6 37.7 5 26.9-.6 28.4-.7 39-3.8 15.9-4.7 23.8-11.8 28.6-25.6 2.9-8.5 3.2-12 3.4-44.3.3-32.4.5-34.9 3.6-42 4-9 10.8-13.2 24.6-15.1 17.2-2.4 24.8-9.1 23.9-21.1-.8-10.5-8.6-16.4-24.1-18.2-15.5-1.8-23.5-8.1-26.6-21.1-.7-3.1-1.2-16.6-1.4-36-.1-17.1-.6-32.6-.9-34.5-3.7-19.4-11.7-29-29.1-34.8-3.3-1.1-8.1-2.3-10.6-2.6-2.5-.4-5.9-.9-7.5-1.2-5.8-1.2-46-1-51.2.1z"/></svg>