<?xml version="1.0" encoding="UTF-8" standalone="no"?>
<svg
   xmlns:dc="http://purl.org/dc/elements/1.1/"
   xmlns:cc="http://creativecommons.org/ns#"
   xmlns:rdf="http://www.w3.org/1999/02/22-rdf-syntax-ns#"
   xmlns:svg="http://www.w3.org/2000/svg"
   xmlns="http://www.w3.org/2000/svg"
   xmlns:sodipodi="http://sodipodi.sourceforge.net/DTD/sodipodi-0.dtd"
   xmlns:inkscape="http://www.inkscape.org/namespaces/inkscape"
   width="368.50043"
   height="368.50043"
   viewBox="0 0 368.50043 368.50043"
   version="1.1"
   id="svg128"
   sodipodi:docname="archy.svg"
   style="fill:none"
   inkscape:version="0.92.5 (2060ec1f9f, 2020-04-08)">
  <metadata
     id="metadata134">
    <rdf:RDF>
      <cc:Work
         rdf:about="">
        <dc:format>image/svg+xml</dc:format>
        <dc:type
           rdf:resource="http://purl.org/dc/dcmitype/StillImage" />
        <dc:title></dc:title>
      </cc:Work>
    </rdf:RDF>
  </metadata>
  <defs
     id="defs132" />
  <sodipodi:namedview
     pagecolor="#ffffff"
     bordercolor="#666666"
     borderopacity="1"
     objecttolerance="10"
     gridtolerance="10"
     guidetolerance="10"
     inkscape:pageopacity="0"
     inkscape:pageshadow="2"
     inkscape:window-width="1920"
     inkscape:window-height="1027"
     id="namedview130"
     showgrid="false"
     fit-margin-top="0"
     fit-margin-left="0"
     fit-margin-right="0"
     fit-margin-bottom="0"
     inkscape:zoom="1.2500165"
     inkscape:cx="82.395618"
     inkscape:cy="212.99492"
     inkscape:window-x="0"
     inkscape:window-y="29"
     inkscape:window-maximized="1"
     inkscape:current-layer="svg128" />
  <rect
     style="opacity:1;vector-effect:none;fill:#d5e6fb;fill-opacity:1;fill-rule:nonzero;stroke:none;stroke-width:20;stroke-linecap:round;stroke-linejoin:round;stroke-miterlimit:4;stroke-dasharray:none;stroke-dashoffset:0;stroke-opacity:1"
     id="rect1008"
     width="368.50043"
     height="368.50043"
     x="0"
     y="0" />
  <g
     id="g1004"
     transform="translate(28.750127,50.75021)">
    <path
       id="path2"
       d="m 231.037,149.374 c 9.013,-12.644 14.294,-27.445 15.27,-42.798 0.976,-15.3532 -2.391,-30.6729 -9.735,-44.2992 -7.344,-13.6264 -18.386,-25.0396 -31.928,-33.003 -13.543,-7.9634 -29.07,-12.1732 -44.899,-12.1732 -15.828,0 -31.355,4.2098 -44.898,12.1732 -13.542,7.9634 -24.5841,19.3766 -31.9282,33.003 -7.3442,13.6263 -10.7108,28.946 -9.735,44.2992 0.9757,15.353 6.2566,30.154 15.2704,42.798 l 0.0953,0.104 c 2.1989,3.089 4.6112,6.029 7.2203,8.8 3.5744,4.874 13.4632,11.057 15.2032,16.8 3.574,11.868 10.783,26.631 10.783,26.631 h 76.015 c 0,0 7.208,-14.786 10.795,-26.631 1.727,-5.789 11.581,-11.926 15.203,-16.8 2.609,-2.771 5.021,-5.711 7.22,-8.8 z"
       inkscape:connector-curvature="0"
       style="fill:#1264d1" />
    <path
       id="path4"
       d="m 195.364,201.732 h -71.285 c -2.573,0 -4.659,2.027 -4.659,4.527 v 3.045 c 0,2.501 2.086,4.528 4.659,4.528 h 71.285 c 2.573,0 4.659,-2.027 4.659,-4.528 v -3.045 c 0,-2.5 -2.086,-4.527 -4.659,-4.527 z"
       inkscape:connector-curvature="0"
       style="fill:#ffffff" />
    <path
       id="path6"
       d="m 195.364,214.422 h -71.297 c -1.392,-0.003 -2.725,-0.542 -3.708,-1.5 -0.983,-0.957 -1.534,-2.254 -1.534,-3.606 v -3.057 c 0,-1.352 0.551,-2.649 1.534,-3.606 0.983,-0.958 2.316,-1.497 3.708,-1.5 h 71.297 c 1.393,0.003 2.727,0.542 3.712,1.499 0.985,0.957 1.539,2.254 1.542,3.607 v 3.057 c -0.003,1.353 -0.557,2.65 -1.542,3.607 -0.985,0.957 -2.319,1.496 -3.712,1.499 z m -71.297,-12.111 c -1.076,0.003 -2.106,0.42 -2.865,1.16 -0.76,0.741 -1.186,1.743 -1.186,2.788 v 3.057 c 0,1.045 0.426,2.048 1.186,2.788 0.759,0.74 1.789,1.157 2.865,1.16 h 71.297 c 1.078,0 2.111,-0.416 2.873,-1.156 0.762,-0.741 1.19,-1.745 1.19,-2.792 v -3.057 c 0,-1.047 -0.428,-2.051 -1.19,-2.792 -0.762,-0.74 -1.795,-1.156 -2.873,-1.156 z"
       inkscape:connector-curvature="0"
       style="fill:#093269" />
    <path
       id="path8"
       d="m 195.364,213.843 h -71.285 c -2.573,0 -4.659,2.027 -4.659,4.527 v 3.045 c 0,2.501 2.086,4.528 4.659,4.528 h 71.285 c 2.573,0 4.659,-2.027 4.659,-4.528 v -3.045 c 0,-2.5 -2.086,-4.527 -4.659,-4.527 z"
       inkscape:connector-curvature="0"
       style="fill:#ffffff" />
    <path
       id="path10"
       d="m 195.364,226.522 h -71.297 c -1.39,0 -2.724,-0.537 -3.707,-1.493 -0.983,-0.955 -1.535,-2.251 -1.535,-3.602 v -3.057 c 0,-1.352 0.551,-2.649 1.534,-3.606 0.983,-0.957 2.316,-1.497 3.708,-1.5 h 71.297 c 1.393,0.003 2.727,0.542 3.712,1.499 0.985,0.957 1.539,2.254 1.542,3.607 v 3.057 c -0.003,1.352 -0.558,2.648 -1.543,3.603 -0.985,0.955 -2.319,1.492 -3.711,1.492 z m -71.297,-12.1 c -1.076,0.003 -2.106,0.42 -2.865,1.161 -0.76,0.74 -1.186,1.742 -1.186,2.787 v 3.057 c 0,0.517 0.105,1.029 0.308,1.507 0.204,0.477 0.502,0.911 0.878,1.277 0.377,0.365 0.823,0.655 1.315,0.853 0.491,0.198 1.018,0.3 1.55,0.3 h 71.297 c 1.076,0 2.107,-0.415 2.869,-1.153 0.761,-0.738 1.191,-1.739 1.194,-2.784 v -3.057 c 0,-1.047 -0.428,-2.051 -1.19,-2.792 -0.762,-0.74 -1.795,-1.156 -2.873,-1.156 z"
       inkscape:connector-curvature="0"
       style="fill:#093269" />
    <path
       id="path12"
       d="m 195.364,225.943 h -71.285 c -2.573,0 -4.659,2.027 -4.659,4.527 v 3.045 c 0,2.5 2.086,4.527 4.659,4.527 h 71.285 c 2.573,0 4.659,-2.027 4.659,-4.527 v -3.045 c 0,-2.5 -2.086,-4.527 -4.659,-4.527 z"
       inkscape:connector-curvature="0"
       style="fill:#ffffff" />
    <path
       id="path14"
       d="m 195.364,238.633 h -71.297 c -1.392,-0.003 -2.725,-0.543 -3.708,-1.5 -0.983,-0.957 -1.534,-2.254 -1.534,-3.606 v -3.057 c 0,-1.352 0.551,-2.649 1.534,-3.607 0.983,-0.957 2.316,-1.496 3.708,-1.499 h 71.297 c 1.393,0.003 2.727,0.542 3.712,1.499 0.985,0.957 1.539,2.254 1.542,3.607 v 3.057 c -0.003,1.353 -0.557,2.65 -1.542,3.607 -0.985,0.957 -2.319,1.496 -3.712,1.499 z m -71.297,-12.111 c -1.076,0.003 -2.106,0.42 -2.865,1.16 -0.76,0.74 -1.186,1.743 -1.186,2.788 v 3.057 c 0,1.045 0.426,2.047 1.186,2.787 0.759,0.74 1.789,1.158 2.865,1.161 h 71.297 c 1.078,0 2.111,-0.416 2.873,-1.157 0.762,-0.74 1.19,-1.744 1.19,-2.791 v -3.057 c 0,-1.047 -0.428,-2.052 -1.19,-2.792 -0.762,-0.74 -1.795,-1.156 -2.873,-1.156 z"
       inkscape:connector-curvature="0"
       style="fill:#093269" />
    <path
       id="path16"
       d="m 195.364,238.054 h -71.285 c -2.573,0 -4.659,2.027 -4.659,4.527 v 3.045 c 0,2.5 2.086,4.527 4.659,4.527 h 71.285 c 2.573,0 4.659,-2.027 4.659,-4.527 v -3.045 c 0,-2.5 -2.086,-4.527 -4.659,-4.527 z"
       inkscape:connector-curvature="0"
       style="fill:#ffffff" />
    <path
       id="path18"
       d="m 195.364,250.732 h -71.297 c -1.392,-0.003 -2.725,-0.542 -3.708,-1.499 -0.983,-0.958 -1.534,-2.255 -1.534,-3.607 v -3.057 c 0,-1.351 0.552,-2.647 1.535,-3.602 0.983,-0.955 2.317,-1.492 3.707,-1.492 h 71.297 c 1.392,0 2.726,0.536 3.711,1.491 0.985,0.955 1.54,2.251 1.543,3.603 v 3.057 c -0.003,1.353 -0.557,2.65 -1.542,3.607 -0.985,0.957 -2.319,1.496 -3.712,1.499 z m -71.297,-12.099 c -0.532,0 -1.059,0.102 -1.55,0.299 -0.492,0.198 -0.938,0.488 -1.315,0.854 -0.376,0.365 -0.674,0.799 -0.878,1.277 -0.203,0.478 -0.308,0.989 -0.308,1.506 v 3.057 c 0,1.045 0.426,2.048 1.186,2.788 0.759,0.74 1.789,1.157 2.865,1.16 h 71.297 c 1.078,0 2.111,-0.416 2.873,-1.156 0.762,-0.74 1.19,-1.745 1.19,-2.792 v -3.057 c -0.003,-1.045 -0.433,-2.046 -1.194,-2.784 -0.762,-0.738 -1.793,-1.152 -2.869,-1.152 z"
       inkscape:connector-curvature="0"
       style="fill:#093269" />
    <path
       id="path20"
       d="M 170.403,266.421 H 149.04 c -2.681,0.003 -5.332,-0.546 -7.778,-1.612 -2.446,-1.066 -4.631,-2.624 -6.412,-4.571 l -9.234,-10.085 h 68.211 l -9.234,10.085 c -1.782,1.946 -3.968,3.503 -6.413,4.569 -2.446,1.066 -5.097,1.616 -7.777,1.614 z"
       inkscape:connector-curvature="0"
       style="fill:#093269" />
    <path
       id="path22"
       d="M 170.403,267 H 149.04 c -2.765,-10e-4 -5.499,-0.57 -8.023,-1.67 -2.523,-1.099 -4.779,-2.704 -6.62,-4.71 l -9.234,-10.085 c -0.075,-0.082 -0.125,-0.184 -0.142,-0.293 -0.016,-0.109 0,-0.22 0.047,-0.32 0.048,-0.103 0.124,-0.19 0.222,-0.252 0.097,-0.061 0.21,-0.095 0.326,-0.096 h 68.211 c 0.115,10e-4 0.227,0.034 0.322,0.096 0.095,0.061 0.17,0.149 0.214,0.252 0.051,0.099 0.068,0.211 0.051,0.321 -0.017,0.11 -0.068,0.212 -0.146,0.292 l -9.234,10.085 c -1.838,2.006 -4.092,3.611 -6.613,4.711 -2.522,1.099 -5.254,1.668 -8.018,1.669 z m -43.512,-16.268 8.34,9.124 c 1.728,1.884 3.846,3.391 6.216,4.423 2.369,1.031 4.937,1.564 7.533,1.563 h 21.363 c 2.597,0 5.164,-0.534 7.533,-1.565 2.37,-1.032 4.488,-2.538 6.217,-4.421 l 8.34,-9.124 z"
       inkscape:connector-curvature="0"
       style="fill:#093269" />
    <path
       id="path24"
       d="m 140.223,165.41 c -1.547,-0.008 -3.091,-0.156 -4.611,-0.44 -2.66,-0.384 -5.163,-1.463 -7.242,-3.121 -2.079,-1.657 -3.657,-3.832 -4.565,-6.292 -3.966,-1.181 -7.624,-3.179 -10.723,-5.859 -5.088,-4.261 -3.837,-10.756 -3.074,-13.315 -2.171,-1.073 -4.079,-2.587 -5.596,-4.439 -1.517,-1.851 -2.608,-3.998 -3.197,-6.294 -0.728,-2.31 -0.814,-4.765 -0.252,-7.117 0.563,-2.353 1.756,-4.519 3.457,-6.28 -1.963,-2.305 -3.174,-5.127 -3.479,-8.105 -0.834,-6.2866 4.158,-10.9875 6.326,-12.7358 -1.191,-1.9105 -2.954,-6.4261 0.584,-12.9911 1.146,-2.2538 2.889,-4.1702 5.051,-5.552 2.161,-1.3818 4.662,-2.1791 7.245,-2.3098 -0.723,-3.5411 -0.58,-7.1978 0.417,-10.6754 2.061,-7.7576 21.935,-15.052 28.131,-14.7278 3.176,0.1756 6.162,1.5311 8.34,3.7861 0.111,0.1031 0.198,0.2272 0.258,0.3646 0.059,0.1375 0.089,0.2853 0.087,0.4344 V 151.817 c 0.006,0.077 0.006,0.155 0,0.232 -0.102,0.553 -0.258,1.096 -0.464,1.621 -3.134,7.688 -8.984,11.74 -16.693,11.74 z m -19.29,-92.5698 c -2.291,0.0015 -4.536,0.6258 -6.482,1.8022 -1.945,1.1765 -3.513,2.8584 -4.527,4.8555 -3.884,7.2018 -0.321,11.2195 -0.166,11.3932 0.111,0.1239 0.195,0.2696 0.244,0.4274 0.05,0.1577 0.064,0.3239 0.042,0.4873 -0.019,0.1637 -0.073,0.3218 -0.159,0.4635 -0.087,0.1418 -0.203,0.264 -0.342,0.3586 -0.071,0 -7.149,4.7819 -6.279,11.2081 0.715,5.338 3.432,7.41 3.574,7.491 0.145,0.108 0.262,0.247 0.342,0.405 0.081,0.159 0.123,0.333 0.123,0.51 0.003,0.175 -0.036,0.348 -0.112,0.506 -0.077,0.159 -0.189,0.298 -0.329,0.409 -1.668,1.459 -2.871,3.352 -3.469,5.455 -0.597,2.103 -0.563,4.328 0.097,6.413 0.521,2.123 1.546,4.099 2.995,5.768 1.448,1.669 3.279,2.985 5.346,3.842 0.155,0.047 0.298,0.125 0.421,0.229 0.123,0.103 0.223,0.23 0.294,0.373 0.064,0.144 0.096,0.3 0.096,0.457 0,0.157 -0.032,0.313 -0.096,0.457 0,0.081 -2.979,7.584 2.037,11.787 2.943,2.616 6.49,4.506 10.342,5.512 0.228,0.041 0.438,0.147 0.606,0.303 0.167,0.157 0.283,0.357 0.335,0.577 0,0.278 1.764,6.796 10.151,8.359 8.877,1.656 15.323,-1.76 18.671,-9.876 0.133,-0.378 0.236,-0.765 0.309,-1.158 V 50.2274 c -1.738,-1.6478 -4.032,-2.6269 -6.457,-2.7556 -5.958,-0.2779 -24.116,6.9471 -25.724,12.991 -1.064,3.5385 -1.064,7.2991 0,10.8375 0.08,0.19 0.107,0.3974 0.078,0.6009 -0.029,0.2035 -0.114,0.3957 -0.245,0.557 -0.125,0.1563 -0.289,0.2788 -0.477,0.3559 -0.188,0.077 -0.393,0.1059 -0.595,0.084 0,0 -0.262,-0.0579 -0.644,-0.0579 z"
       inkscape:connector-curvature="0"
       style="fill:#ffffff" />
    <path
       id="path26"
       d="m 118.181,119.339 c -6.744,0 -12.653,-6.02 -12.915,-6.287 -0.217,-0.224 -0.333,-0.522 -0.323,-0.83 0.01,-0.307 0.146,-0.598 0.376,-0.808 0.231,-0.21 0.538,-0.323 0.854,-0.313 0.317,0.01 0.616,0.141 0.832,0.365 0,0.058 5.958,5.998 11.843,5.535 0.157,-0.013 0.314,0.005 0.464,0.052 0.149,0.047 0.287,0.122 0.407,0.221 0.119,0.099 0.217,0.22 0.289,0.356 0.071,0.136 0.115,0.284 0.127,0.436 0.013,0.152 -0.006,0.305 -0.054,0.45 -0.048,0.145 -0.126,0.28 -0.227,0.396 -0.102,0.116 -0.227,0.211 -0.366,0.281 -0.14,0.069 -0.293,0.111 -0.449,0.123 z"
       inkscape:connector-curvature="0"
       style="fill:#ffffff" />
    <path
       id="path28"
       d="m 133.146,101.925 c -1.497,-0.005 -2.987,-0.199 -4.432,-0.578 -10.378,-2.6751 -11.45,-14.2884 -11.486,-14.7862 -0.025,-0.3071 0.076,-0.6114 0.282,-0.8459 0.205,-0.2345 0.498,-0.3801 0.814,-0.4046 0.316,-0.0246 0.629,0.0738 0.87,0.2736 0.242,0.1998 0.392,0.4845 0.417,0.7916 0,0.4284 0.989,10.4207 9.734,12.7364 2.532,0.6732 5.208,0.6346 7.718,-0.1115 2.509,-0.746 4.75,-2.1688 6.461,-4.1031 0.096,-0.1201 0.215,-0.2207 0.352,-0.2959 0.136,-0.0751 0.286,-0.1235 0.441,-0.1423 0.156,-0.0189 0.314,-0.0077 0.465,0.0327 0.151,0.0404 0.292,0.1093 0.416,0.2029 0.123,0.0935 0.227,0.2097 0.304,0.3421 0.077,0.1323 0.127,0.2782 0.146,0.4293 0.02,0.151 0.008,0.3043 -0.033,0.4511 -0.042,0.1467 -0.113,0.2841 -0.209,0.4042 -1.515,1.7287 -3.393,3.1229 -5.507,4.0896 -2.114,0.966 -4.417,1.483 -6.753,1.514 z"
       inkscape:connector-curvature="0"
       style="fill:#ffffff" />
    <path
       id="path30"
       d="m 124.27,112.184 h -0.966 c -0.316,0 -0.619,-0.122 -0.842,-0.339 -0.223,-0.217 -0.349,-0.512 -0.349,-0.819 0,-0.157 0.032,-0.312 0.096,-0.457 0.064,-0.144 0.157,-0.274 0.274,-0.383 0.117,-0.108 0.255,-0.192 0.407,-0.247 0.151,-0.054 0.313,-0.079 0.474,-0.071 3.312,0.162 5.826,-0.59 7.47,-2.246 2.598,-2.617 2.276,-6.692 2.276,-6.739 -0.013,-0.152 0.005,-0.305 0.052,-0.45 0.048,-0.146 0.124,-0.281 0.226,-0.397 0.101,-0.1169 0.225,-0.213 0.364,-0.2831 0.14,-0.0702 0.292,-0.1129 0.448,-0.1258 0.157,-0.013 0.314,0.0042 0.464,0.0504 0.15,0.0463 0.288,0.1207 0.409,0.2191 0.12,0.0984 0.218,0.2184 0.291,0.3544 0.072,0.135 0.116,0.283 0.129,0.436 0,0.208 0.429,5.14 -2.919,8.521 -1.099,1.024 -2.404,1.817 -3.833,2.329 -1.429,0.512 -2.951,0.732 -4.471,0.647 z"
       inkscape:connector-curvature="0"
       style="fill:#ffffff" />
    <path
       id="path32"
       d="m 138.603,88.2049 c -0.284,0.004 -0.56,-0.0906 -0.778,-0.2668 -0.219,-0.1762 -0.365,-0.4223 -0.414,-0.6942 C 134.85,73.2108 122.208,72.875 121.672,72.875 c -0.316,0 -0.619,-0.122 -0.842,-0.3391 -0.224,-0.2172 -0.349,-0.5117 -0.349,-0.8188 0,-0.3071 0.125,-0.6016 0.349,-0.8187 0.223,-0.2171 0.526,-0.3391 0.842,-0.3391 0.155,0 15.156,0.3242 18.063,16.2793 0.027,0.1498 0.024,0.3034 -0.01,0.452 -0.033,0.1485 -0.097,0.2892 -0.186,0.414 -0.09,0.1247 -0.204,0.231 -0.336,0.3129 -0.132,0.0819 -0.279,0.1377 -0.433,0.1642 z"
       inkscape:connector-curvature="0"
       style="fill:#ffffff" />
    <path
       id="path34"
       d="m 141.117,151.643 c -0.316,0 -0.619,-0.122 -0.843,-0.339 -0.223,-0.217 -0.349,-0.511 -0.349,-0.818 -0.238,-14.96 -15.095,-15.4 -15.727,-15.411 -0.316,0 -0.619,-0.122 -0.842,-0.339 -0.224,-0.218 -0.349,-0.512 -0.349,-0.819 0,-0.307 0.125,-0.602 0.349,-0.819 0.223,-0.217 0.526,-0.339 0.842,-0.339 0.179,0 17.8,0.475 18.075,17.68 0,0.307 -0.126,0.602 -0.349,0.819 -0.224,0.217 -0.527,0.339 -0.843,0.339 z"
       inkscape:connector-curvature="0"
       style="fill:#ffffff" />
    <path
       id="path36"
       d="m 130.155,136.256 c -0.292,0.002 -0.576,-0.101 -0.795,-0.289 -0.22,-0.188 -0.361,-0.448 -0.396,-0.73 0,-0.162 -1.99,-16.824 15.322,-19.001 0.316,-0.039 0.636,0.044 0.888,0.233 0.253,0.189 0.417,0.468 0.459,0.775 0.041,0.307 -0.046,0.617 -0.24,0.863 -0.194,0.245 -0.481,0.405 -0.797,0.445 -14.941,1.876 -13.344,15.816 -13.261,16.407 0.02,0.151 0.009,0.305 -0.032,0.452 -0.042,0.147 -0.112,0.285 -0.209,0.406 -0.096,0.12 -0.216,0.221 -0.353,0.296 -0.136,0.076 -0.287,0.124 -0.443,0.143 z"
       inkscape:connector-curvature="0"
       style="fill:#ffffff" />
    <path
       id="path38"
       d="m 156.236,78.259 c -0.304,5e-4 -0.596,-0.1119 -0.818,-0.3142 -0.221,-0.2024 -0.355,-0.4793 -0.373,-0.7742 0,-0.1737 -0.357,-3.5662 -6.041,-4.9787 -0.162,-0.0277 -0.316,-0.0877 -0.453,-0.1762 -0.137,-0.0884 -0.253,-0.2035 -0.342,-0.3379 -0.089,-0.1343 -0.149,-0.2852 -0.175,-0.4429 -0.026,-0.1578 -0.018,-0.3191 0.023,-0.4738 0.042,-0.1546 0.115,-0.2993 0.217,-0.425 0.102,-0.1256 0.229,-0.2294 0.374,-0.305 0.145,-0.0755 0.304,-0.121 0.468,-0.1337 0.164,-0.0128 0.329,0.0076 0.484,0.0598 7.506,1.8526 7.816,6.8776 7.828,7.0976 0,0.3071 -0.126,0.6016 -0.349,0.8187 -0.223,0.2172 -0.527,0.3392 -0.843,0.3392 z"
       inkscape:connector-curvature="0"
       style="fill:#ffffff" />
    <path
       id="path40"
       d="m 139.925,59.2703 c -0.166,-4e-4 -0.33,-0.0346 -0.482,-0.1004 -0.152,-0.0658 -0.288,-0.1618 -0.399,-0.2817 -5.302,-5.7198 -11.391,-3.6357 -11.653,-3.5431 -0.297,0.1043 -0.624,0.0897 -0.91,-0.0405 -0.286,-0.1303 -0.507,-0.3656 -0.615,-0.6542 -0.108,-0.2871 -0.094,-0.6041 0.037,-0.8818 0.132,-0.2776 0.371,-0.4934 0.666,-0.6002 0.31,-0.1158 7.84,-2.7441 14.298,4.1683 0.105,0.1136 0.187,0.2465 0.239,0.3909 0.053,0.1444 0.075,0.2975 0.066,0.4505 -0.009,0.1529 -0.049,0.3026 -0.118,0.4404 -0.068,0.1378 -0.165,0.2609 -0.283,0.3623 -0.232,0.1999 -0.536,0.3037 -0.846,0.2895 z"
       inkscape:connector-curvature="0"
       style="fill:#ffffff" />
    <path
       id="path42"
       d="m 126.593,135.098 c -0.3,10e-4 -0.59,-0.108 -0.811,-0.306 -0.22,-0.197 -0.357,-0.469 -0.381,-0.759 -0.15,-1.179 -0.612,-2.3 -1.341,-3.254 -0.729,-0.953 -1.699,-1.707 -2.817,-2.188 -0.292,-0.117 -0.525,-0.342 -0.646,-0.625 -0.122,-0.284 -0.123,-0.602 -0.003,-0.886 0.12,-0.284 0.351,-0.51 0.643,-0.629 0.291,-0.118 0.619,-0.119 0.912,-0.002 1.522,0.643 2.842,1.665 3.829,2.961 0.988,1.297 1.606,2.823 1.794,4.426 0.027,0.305 -0.072,0.608 -0.276,0.843 -0.203,0.234 -0.494,0.381 -0.808,0.407 z"
       inkscape:connector-curvature="0"
       style="fill:#ffffff" />
    <path
       id="path44"
       d="m 179.22,165.41 c -7.709,0 -13.559,-4.052 -16.681,-11.74 -0.196,-0.528 -0.347,-1.07 -0.452,-1.621 -0.006,-0.077 -0.006,-0.155 0,-0.232 V 49.7412 c 0.001,-0.2981 0.12,-0.5843 0.333,-0.799 2.196,-2.2635 5.204,-3.6192 8.4,-3.7861 6.148,-0.2663 26.069,6.9471 28.13,14.7278 0.985,3.4795 1.128,7.1334 0.417,10.6754 2.583,0.1331 5.083,0.9313 7.244,2.3129 2.161,1.3815 3.904,3.2966 5.052,5.5489 3.575,6.565 1.752,11.0806 0.572,12.9911 2.181,1.7252 7.149,6.426 6.339,12.7368 -0.298,2.981 -1.515,5.806 -3.491,8.104 1.706,1.758 2.903,3.924 3.468,6.277 0.565,2.353 0.478,4.81 -0.251,7.12 -0.594,2.294 -1.686,4.439 -3.203,6.29 -1.516,1.851 -3.422,3.366 -5.59,4.443 0.75,2.559 2.013,9.054 -3.074,13.315 -3.1,2.68 -6.757,4.678 -10.723,5.859 -0.911,2.459 -2.489,4.632 -4.568,6.289 -2.079,1.658 -4.581,2.737 -7.24,3.124 -1.543,0.288 -3.111,0.435 -4.682,0.44 z m -14.822,-13.709 c 0.066,0.395 0.17,0.782 0.31,1.158 3.336,8.105 9.806,11.579 18.67,9.877 8.447,-1.575 10.139,-8.291 10.151,-8.36 0.052,-0.22 0.169,-0.42 0.336,-0.576 0.167,-0.157 0.377,-0.262 0.605,-0.304 3.844,-1.018 7.384,-2.907 10.33,-5.511 5.028,-4.203 2.086,-11.706 2.05,-11.787 -0.064,-0.145 -0.097,-0.3 -0.097,-0.458 0,-0.157 0.033,-0.312 0.097,-0.457 0.069,-0.141 0.167,-0.267 0.288,-0.371 0.121,-0.103 0.262,-0.182 0.415,-0.231 0.25,-0.081 6.172,-2.073 8.34,-9.61 0.667,-2.084 0.704,-4.311 0.106,-6.415 -0.598,-2.104 -1.805,-3.997 -3.478,-5.453 -0.141,-0.112 -0.255,-0.253 -0.331,-0.414 -0.076,-0.16 -0.114,-0.336 -0.11,-0.512 0.004,-0.176 0.049,-0.349 0.131,-0.505 0.083,-0.157 0.201,-0.293 0.346,-0.399 0.107,-0.081 2.836,-2.153 3.574,-7.491 0.858,-6.449 -6.195,-11.1615 -6.267,-11.2078 -0.143,-0.0929 -0.264,-0.2148 -0.354,-0.3574 -0.09,-0.1426 -0.147,-0.3025 -0.168,-0.4687 -0.02,-0.1662 -0.003,-0.3347 0.05,-0.4939 0.053,-0.1592 0.141,-0.3053 0.258,-0.4283 0.155,-0.1621 3.705,-4.1799 -0.167,-11.3817 -1.065,-2.0874 -2.733,-3.8272 -4.801,-5.0058 -2.068,-1.1786 -4.445,-1.7447 -6.84,-1.6287 -0.201,0.0186 -0.405,-0.0132 -0.59,-0.0922 -0.186,-0.079 -0.347,-0.2027 -0.47,-0.3593 -0.131,-0.1613 -0.216,-0.3535 -0.245,-0.557 -0.029,-0.2035 -0.002,-0.4109 0.078,-0.6009 1.065,-3.5384 1.065,-7.299 0,-10.8375 -0.715,-2.6398 -4.944,-5.9513 -11.343,-8.8691 -5.433,-2.4778 -11.64,-4.2493 -14.381,-4.1219 -2.425,0.1256 -4.721,1.1052 -6.457,2.7557 z"
       inkscape:connector-curvature="0"
       style="fill:#ffffff" />
    <path
       id="path46"
       d="m 201.262,119.339 h -0.858 c -0.157,-0.011 -0.309,-0.053 -0.449,-0.122 -0.14,-0.069 -0.265,-0.165 -0.367,-0.281 -0.102,-0.116 -0.179,-0.251 -0.227,-0.396 -0.048,-0.146 -0.066,-0.299 -0.053,-0.451 0.012,-0.152 0.055,-0.301 0.126,-0.437 0.071,-0.136 0.17,-0.257 0.289,-0.356 0.12,-0.099 0.258,-0.174 0.408,-0.221 0.149,-0.046 0.307,-0.064 0.464,-0.051 5.957,0.474 11.783,-5.477 11.843,-5.535 0.215,-0.223 0.513,-0.355 0.827,-0.366 0.315,-0.011 0.622,0.1 0.853,0.308 0.111,0.108 0.2,0.236 0.26,0.377 0.061,0.141 0.092,0.293 0.092,0.445 0,0.153 -0.031,0.305 -0.092,0.446 -0.06,0.141 -0.149,0.269 -0.26,0.377 -0.251,0.243 -6.113,6.263 -12.856,6.263 z"
       inkscape:connector-curvature="0"
       style="fill:#ffffff" />
    <path
       id="path48"
       d="m 186.297,101.925 c -2.335,-0.032 -4.635,-0.548 -6.748,-1.515 -2.112,-0.9661 -3.987,-2.3602 -5.5,-4.0886 -0.096,-0.1201 -0.167,-0.2575 -0.209,-0.4042 -0.042,-0.1468 -0.053,-0.3001 -0.034,-0.4511 0.02,-0.1511 0.07,-0.297 0.147,-0.4293 0.077,-0.1324 0.181,-0.2486 0.304,-0.3421 0.124,-0.0936 0.265,-0.1625 0.416,-0.2029 0.151,-0.0404 0.309,-0.0516 0.465,-0.0327 0.155,0.0188 0.305,0.0671 0.441,0.1423 0.136,0.0752 0.256,0.1758 0.352,0.2959 1.708,1.9388 3.948,3.3649 6.459,4.1113 2.511,0.7464 5.189,0.7822 7.72,0.1033 8.745,-2.3157 9.698,-12.308 9.734,-12.7364 0.013,-0.152 0.056,-0.3002 0.127,-0.436 0.072,-0.1359 0.17,-0.2567 0.289,-0.3556 0.12,-0.0989 0.258,-0.174 0.408,-0.2209 0.149,-0.047 0.306,-0.0649 0.463,-0.0527 0.156,0.0121 0.309,0.0541 0.448,0.1236 0.14,0.0694 0.265,0.1649 0.366,0.281 0.102,0.1161 0.179,0.2506 0.228,0.3957 0.048,0.1452 0.066,0.2981 0.054,0.4502 0,0.4978 -1.108,12.1111 -11.486,14.7862 -1.449,0.378 -2.943,0.573 -4.444,0.578 z"
       inkscape:connector-curvature="0"
       style="fill:#ffffff" />
    <path
       id="path50"
       d="m 195.162,112.184 c -1.528,0.088 -3.058,-0.134 -4.494,-0.65 -1.436,-0.516 -2.745,-1.316 -3.847,-2.349 -2.091,-2.355 -3.14,-5.418 -2.919,-8.522 0.014,-0.152 0.058,-0.3 0.13,-0.435 0.072,-0.136 0.171,-0.2562 0.291,-0.3545 0.12,-0.0984 0.259,-0.1729 0.408,-0.2191 0.15,-0.0462 0.308,-0.0634 0.464,-0.0505 0.157,0.0129 0.309,0.0557 0.448,0.1258 0.14,0.0702 0.264,0.1663 0.365,0.2833 0.101,0.116 0.178,0.251 0.225,0.397 0.048,0.145 0.066,0.298 0.052,0.45 -0.154,2.446 0.66,4.857 2.276,6.739 1.644,1.656 4.146,2.408 7.47,2.246 0.316,0 0.619,0.122 0.843,0.339 0.223,0.217 0.349,0.512 0.349,0.819 0,0.297 -0.117,0.583 -0.328,0.799 -0.211,0.215 -0.498,0.344 -0.804,0.359 z"
       inkscape:connector-curvature="0"
       style="fill:#ffffff" />
    <path
       id="path52"
       d="m 180.828,88.2049 h -0.202 c -0.154,-0.0266 -0.302,-0.0824 -0.434,-0.1642 -0.132,-0.0819 -0.246,-0.1883 -0.335,-0.313 -0.09,-0.1247 -0.153,-0.2654 -0.187,-0.414 -0.034,-0.1486 -0.037,-0.3021 -0.009,-0.4519 2.907,-15.9552 17.872,-16.2794 18.05,-16.2794 0.316,0 0.619,0.122 0.843,0.3392 0.223,0.2171 0.349,0.5116 0.349,0.8187 0,0.3071 -0.126,0.6016 -0.349,0.8187 -0.224,0.2171 -0.527,0.3391 -0.843,0.3391 -0.548,0 -13.177,0.3358 -15.739,14.3689 -0.052,0.2598 -0.193,0.4946 -0.401,0.6653 -0.209,0.1706 -0.471,0.2668 -0.743,0.2726 z"
       inkscape:connector-curvature="0"
       style="fill:#ffffff" />
    <path
       id="path54"
       d="m 178.326,151.643 c -0.316,0 -0.619,-0.122 -0.842,-0.339 -0.224,-0.217 -0.349,-0.511 -0.349,-0.818 0.274,-17.206 17.872,-17.681 18.062,-17.681 0.316,0 0.619,0.122 0.843,0.339 0.223,0.218 0.349,0.512 0.349,0.819 0,0.307 -0.126,0.602 -0.349,0.819 -0.224,0.217 -0.527,0.339 -0.843,0.339 -0.631,0 -15.489,0.452 -15.727,15.411 -0.012,0.291 -0.136,0.567 -0.348,0.773 -0.212,0.206 -0.496,0.327 -0.796,0.338 z"
       inkscape:connector-curvature="0"
       style="fill:#ffffff" />
    <path
       id="path56"
       d="m 189.276,136.256 h -0.143 c -0.156,-0.019 -0.307,-0.067 -0.443,-0.143 -0.137,-0.075 -0.257,-0.176 -0.353,-0.296 -0.096,-0.121 -0.167,-0.259 -0.209,-0.406 -0.041,-0.147 -0.052,-0.301 -0.032,-0.452 0.072,-0.591 1.68,-14.531 -13.261,-16.407 -0.156,-0.02 -0.307,-0.069 -0.444,-0.146 -0.137,-0.076 -0.257,-0.178 -0.353,-0.299 -0.194,-0.246 -0.28,-0.556 -0.239,-0.863 0.041,-0.307 0.206,-0.586 0.458,-0.775 0.253,-0.189 0.572,-0.272 0.888,-0.233 17.276,2.212 15.334,18.839 15.31,19.001 -0.035,0.28 -0.174,0.539 -0.391,0.726 -0.217,0.188 -0.498,0.292 -0.788,0.293 z"
       inkscape:connector-curvature="0"
       style="fill:#ffffff" />
    <path
       id="path58"
       d="m 163.206,78.259 c -0.316,0 -0.619,-0.122 -0.842,-0.3391 -0.223,-0.2172 -0.349,-0.5117 -0.349,-0.8188 0,-0.2199 0.322,-5.245 7.828,-7.0976 0.293,-0.0445 0.593,0.0189 0.84,0.1778 0.248,0.1589 0.426,0.4018 0.499,0.6813 0.073,0.2794 0.036,0.5753 -0.104,0.8297 -0.139,0.2545 -0.372,0.4491 -0.651,0.5459 -5.803,1.4473 -6.029,4.9324 -6.029,4.9671 -0.027,0.2887 -0.164,0.5571 -0.385,0.7522 -0.22,0.1951 -0.508,0.3027 -0.807,0.3015 z"
       inkscape:connector-curvature="0"
       style="fill:#ffffff" />
    <path
       id="path60"
       d="m 179.506,59.2702 c -0.231,-5e-4 -0.456,-0.0658 -0.648,-0.1881 -0.193,-0.1222 -0.346,-0.2961 -0.439,-0.5006 -0.093,-0.2046 -0.123,-0.431 -0.087,-0.6519 0.036,-0.2209 0.138,-0.4269 0.292,-0.593 6.41,-6.9471 13.928,-4.284 14.298,-4.1682 0.147,0.0528 0.282,0.1334 0.397,0.2372 0.115,0.1038 0.208,0.2287 0.274,0.3675 0.065,0.1388 0.101,0.2888 0.107,0.4414 0.005,0.1525 -0.02,0.3046 -0.076,0.4475 -0.054,0.1432 -0.137,0.2746 -0.244,0.3865 -0.106,0.1119 -0.235,0.2023 -0.378,0.2657 -0.143,0.0635 -0.297,0.0989 -0.454,0.1042 -0.157,0.0053 -0.313,-0.0196 -0.46,-0.0733 -0.251,-0.0926 -6.351,-2.1767 -11.641,3.543 -0.118,0.1275 -0.264,0.2279 -0.426,0.2939 -0.163,0.0661 -0.339,0.0962 -0.515,0.0882 z"
       inkscape:connector-curvature="0"
       style="fill:#ffffff" />
    <path
       id="path62"
       d="m 192.85,135.086 h -0.107 c -0.314,-0.026 -0.605,-0.173 -0.808,-0.407 -0.203,-0.235 -0.303,-0.538 -0.276,-0.843 0.184,-1.602 0.8,-3.129 1.786,-4.426 0.985,-1.296 2.304,-2.318 3.825,-2.961 0.146,-0.059 0.302,-0.089 0.459,-0.088 0.158,0 0.313,0.031 0.458,0.09 0.146,0.059 0.277,0.146 0.388,0.255 0.11,0.109 0.197,0.238 0.256,0.379 0.118,0.285 0.115,0.603 -0.007,0.885 -0.123,0.282 -0.356,0.505 -0.648,0.621 -1.118,0.479 -2.087,1.233 -2.814,2.187 -0.727,0.954 -1.186,2.076 -1.332,3.255 -0.027,0.286 -0.163,0.553 -0.381,0.748 -0.218,0.195 -0.503,0.304 -0.799,0.305 z"
       inkscape:connector-curvature="0"
       style="fill:#ffffff" />
    <path
       id="path64"
       d="m 303.942,79.081 c -3.098,-9.6333 -20.97,-14.1257 -50.53,-12.6321 -4.575,0.2316 -9.341,0.6175 -14.297,1.1579 l 0.512,1.1578 c 8.16,-0.8633 16.36,-1.3193 24.568,-1.3663 21.673,0 35.934,3.9715 38.52,12.1459 4.003,12.7363 -21.053,32.3158 -61.599,50.9458 -22.835,10.326 -46.394,19.07 -70.499,26.167 -20.259,6.092 -40.861,11.049 -61.705,14.844 -14.1711,2.604 -28.4973,4.332 -42.8931,5.175 -28.4878,1.436 -46.467,-2.86 -49.2669,-11.787 -3.8842,-12.25 19.397,-30.995 57.5476,-49.081 0,-0.405 -0.1311,-0.81 -0.2026,-1.227 -8.7453,4.133 -16.8115,8.371 -24.0437,12.632 -25.3066,14.867 -37.5429,28.379 -34.5524,38.035 2.6689,8.429 16.6805,12.933 39.9259,12.933 3.348,0 6.8867,-0.104 10.604,-0.289 14.6545,-0.848 29.2369,-2.619 43.6552,-5.303 20.705,-3.776 41.168,-8.709 61.289,-14.774 23.768,-7.001 47.002,-15.609 69.534,-25.762 9.894,-4.476 19.546,-9.442 28.916,-14.879 25.307,-14.936 37.555,-28.4249 34.517,-38.093 z"
       inkscape:connector-curvature="0"
       style="fill:#093269" />
    <path
       id="path66"
       d="m 269.437,127.178 c -7.244,-4.261 -15.298,-8.498 -24.043,-12.632 -0.072,0.417 -0.155,0.822 -0.215,1.227 38.127,18.086 61.444,36.831 57.56,49.082 -2.836,8.927 -20.791,13.222 -49.267,11.786 -14.396,-0.841 -28.722,-2.57 -42.893,-5.175 -20.86,-3.782 -41.478,-8.727 -61.753,-14.809 C 124.703,149.551 101.131,140.783 78.291,130.42 68.8274,126.121 59.5973,121.352 50.6372,116.132 26.2599,101.752 13.8686,88.3439 16.7043,79.4516 19.2779,71.2772 33.5278,67.3057 55.2124,67.3057 c 8.2117,0.0432 16.4158,0.4953 24.5799,1.3547 0.1668,-0.3705 0.3336,-0.7526 0.5123,-1.1578 -4.9327,-0.5095 -9.6985,-0.8954 -14.2976,-1.1579 -29.5125,-1.3894 -47.4559,3.103 -50.506,12.7364 -3.0502,9.6333 9.198,23.1569 34.5524,38.0469 9.3667,5.437 19.0144,10.403 28.9048,14.878 22.5188,10.167 45.7408,18.791 69.4978,25.809 20.121,6.066 40.584,10.999 61.289,14.774 14.422,2.684 29.009,4.456 43.667,5.303 3.718,0.185 7.244,0.289 10.604,0.289 23.21,0 37.257,-4.504 39.926,-12.933 3.038,-9.691 -9.21,-23.203 -34.505,-38.07 z"
       inkscape:connector-curvature="0"
       style="fill:#093269" />
    <path
       id="path68"
       d="m 99.1416,188.093 -11.2236,6.252 c -0.9788,-0.358 -2.016,-0.543 -3.062,-0.544 H 43.1548 c -2.3226,0 -4.55,0.896 -6.1923,2.492 -1.6423,1.596 -2.565,3.761 -2.565,6.018 v 21.177 c 0,2.257 0.9227,4.422 2.565,6.018 1.6423,1.596 3.8697,2.492 6.1923,2.492 H 84.856 c 2.3225,0 4.55,-0.896 6.1923,-2.492 1.6423,-1.596 2.5649,-3.761 2.5649,-6.018 v -21.177 c -0.0055,-1.198 -0.2693,-2.381 -0.7745,-3.474 z"
       inkscape:connector-curvature="0"
       style="fill:#ffffff" />
    <path
       id="path70"
       d="M 84.8559,232.577 H 43.1547 c -2.4796,-0.003 -4.8567,-0.962 -6.61,-2.665 -1.7534,-1.704 -2.7398,-4.014 -2.7429,-6.424 v -21.177 c 0.0031,-2.41 0.9895,-4.72 2.7429,-6.424 1.7533,-1.704 4.1304,-2.662 6.61,-2.665 h 41.7012 c 1.0216,0 2.036,0.165 3.0025,0.486 l 10.9853,-6.113 c 0.1126,-0.065 0.2443,-0.091 0.3739,-0.074 0.1296,0.017 0.2497,0.075 0.341,0.166 0.0918,0.09 0.1509,0.207 0.1681,0.332 0.0172,0.126 -0.0084,0.253 -0.0728,0.363 l -6.1599,10.421 c 0.4747,1.099 0.7178,2.281 0.7149,3.473 v 21.177 c 0.0031,1.196 -0.2364,2.381 -0.7049,3.487 -0.4685,1.106 -1.1567,2.112 -2.0254,2.959 -0.8686,0.848 -1.9007,1.52 -3.037,1.98 -1.1364,0.459 -2.3549,0.697 -3.5857,0.698 z M 43.1547,194.368 c -2.1636,0.003 -4.2376,0.84 -5.7675,2.327 -1.5299,1.486 -2.3908,3.502 -2.394,5.604 v 21.177 c 0,2.104 0.8599,4.121 2.3905,5.609 1.5306,1.487 3.6065,2.323 5.771,2.323 h 41.7012 c 2.1646,0 4.2405,-0.836 5.7711,-2.323 1.5306,-1.488 2.3904,-3.505 2.3904,-5.609 v -21.165 c 0.0037,-1.123 -0.2443,-2.233 -0.7267,-3.254 -0.0439,-0.082 -0.0668,-0.173 -0.0668,-0.266 0,-0.093 0.0229,-0.184 0.0668,-0.266 l 5.2185,-8.869 -9.2934,5.21 c -0.0808,0.034 -0.168,0.052 -0.2561,0.052 -0.0882,0 -0.1753,-0.018 -0.2562,-0.052 -0.9102,-0.334 -1.8747,-0.506 -2.8476,-0.509 z"
       inkscape:connector-curvature="0"
       style="fill:#d5e6fb" />
    <path
       id="path72"
       d="m 257.952,193.801 c -6.635,-0.066 -13.207,1.244 -19.278,3.844 l -13.869,-7.156 4.551,13.385 c -2.867,2.788 -4.525,6.538 -4.634,10.479 0,11.358 14.845,20.563 33.146,20.563 18.301,0 33.135,-9.263 33.135,-20.563 0,-11.301 -14.81,-20.552 -33.051,-20.552 z"
       inkscape:connector-curvature="0"
       style="fill:#ffffff" />
    <path
       id="path74"
       d="m 257.952,235.495 c -18.611,0 -33.743,-9.483 -33.743,-21.142 0.095,-3.971 1.724,-7.762 4.564,-10.618 l -4.528,-13.06 c -0.039,-0.11 -0.044,-0.229 -0.012,-0.34 0.032,-0.112 0.099,-0.212 0.191,-0.286 0.091,-0.075 0.203,-0.122 0.322,-0.134 0.119,-0.013 0.24,0.01 0.345,0.065 l 13.607,7.016 c 6.076,-2.55 12.635,-3.836 19.254,-3.774 18.598,0 33.73,9.483 33.73,21.131 0,11.648 -15.191,21.142 -33.73,21.142 z m -32.17,-43.813 4.158,12.007 c 0.036,0.099 0.042,0.205 0.019,0.307 -0.023,0.102 -0.075,0.196 -0.15,0.272 -2.767,2.68 -4.371,6.289 -4.48,10.085 0,11.022 14.608,19.984 32.551,19.984 17.944,0 32.539,-8.962 32.539,-19.984 0,-11.023 -14.595,-19.973 -32.467,-19.973 -6.56,-0.072 -13.059,1.219 -19.064,3.786 -0.083,0.04 -0.175,0.06 -0.268,0.06 -0.093,0 -0.185,-0.02 -0.268,-0.06 z"
       inkscape:connector-curvature="0"
       style="fill:#d5e6fb" />
    <path
       id="path76"
       d="M 79.9352,4.15662 H 33.9567 V 43.3267 h 39.4135 l 6.5531,5.9745 -2.0612,-5.9745 h 2.0612 z"
       inkscape:connector-curvature="0"
       style="fill:#ffffff" />
    <path
       id="path78"
       d="M 79.9352,49.8801 C 79.7841,49.8769 79.6397,49.8191 79.5301,49.718 L 73.1557,43.9288 H 33.9566 c -0.158,0 -0.3095,-0.061 -0.4212,-0.1696 -0.1117,-0.1086 -0.1745,-0.2558 -0.1745,-0.4094 V 4.15662 c 0,-0.15354 0.0628,-0.30079 0.1745,-0.40936 0.1117,-0.10857 0.2632,-0.16956 0.4212,-0.16956 h 45.9667 c 0.158,0 0.3095,0.06099 0.4212,0.16956 0.1117,0.10857 0.1745,0.25582 0.1745,0.40936 V 43.3267 c 0,0.1535 -0.0628,0.3008 -0.1745,0.4093 -0.1117,0.1086 -0.2632,0.1696 -0.4212,0.1696 h -1.1915 l 1.7991,5.2103 c 0.0278,0.0877 0.0341,0.1804 0.0186,0.2708 -0.0155,0.0904 -0.0524,0.1761 -0.1079,0.2503 -0.0555,0.0741 -0.128,0.1347 -0.2118,0.1769 -0.0837,0.0422 -0.1765,0.0649 -0.2708,0.0662 z M 34.5643,42.7477 h 38.8178 c 0.155,0.0015 0.3038,0.0593 0.417,0.1621 l 4.8255,4.3999 -1.3107,-3.7978 c -0.0301,-0.0867 -0.0387,-0.1792 -0.0249,-0.2698 0.0138,-0.0906 0.0494,-0.1767 0.1041,-0.2513 0.0546,-0.0746 0.1267,-0.1355 0.2103,-0.1777 0.0836,-0.0423 0.1763,-0.0647 0.2705,-0.0654 h 1.4655 V 4.73555 H 34.5643 Z"
       inkscape:connector-curvature="0"
       style="fill:#d5e6fb" />
    <path
       id="path80"
       d="m 56.9519,150.335 c -4.0271,0 -4.0271,6.09 0,6.09 4.0272,0 4.0391,-6.09 0,-6.09 z"
       inkscape:connector-curvature="0"
       style="fill:#d5e6fb" />
    <path
       id="path82"
       d="m 3.1693,105.098 c -0.05563,-0.203 -0.16682,-0.387 -0.3217,-0.533 l -0.70296,-0.694 c -0.11201,-0.113 -0.25129,-0.197 -0.4051,-0.244 -0.14882,-0.08 -0.31867,-0.116 -0.48849,-0.104 -0.16595,-0.011 -0.331731,0.025 -0.476592,0.104 -0.153809,0.047 -0.293085,0.131 -0.405101,0.244 l -0.19063,0.254 C 0.0612145,104.31 -7.09705e-4,104.522 6.13672e-6,104.739 v 0.324 C 0.0597284,105.264 0.170329,105.447 0.321697,105.596 l 0.702963,0.683 c 0.11132,0.116 0.25049,0.204 0.4051,0.255 0.15341,0.068 0.31992,0.103 0.4885,0.104 0.165,10e-4 0.32809,-0.034 0.47659,-0.104 0.1546,-0.051 0.29377,-0.139 0.40509,-0.255 l 0.19064,-0.243 c 0.11751,-0.184 0.17944,-0.397 0.17872,-0.614 z"
       inkscape:connector-curvature="0"
       style="fill:#d5e6fb" />
    <path
       id="path84"
       d="M 56.6898,88.506 C 56.6372,88.3557 56.5472,88.2205 56.4277,88.1123 56.3178,87.9971 56.1778,87.9131 56.0226,87.8691 55.878,87.789 55.712,87.7527 55.546,87.7649 h -0.3336 c -0.2084,0.0541 -0.3979,0.1621 -0.5481,0.3127 l -0.2025,0.2547 c -0.109,0.1872 -0.1664,0.3986 -0.1668,0.6136 v 0.6832 c 0.0143,0.3192 0.1453,0.623 0.3693,0.8568 0.1048,0.1181 0.2407,0.2061 0.3932,0.2547 0.1534,0.0679 0.3199,0.1035 0.4885,0.1042 h 0.3336 c 0.2085,-0.054 0.3979,-0.1621 0.5481,-0.3126 l 0.2025,-0.2432 c 0.108,-0.1875 0.1654,-0.3987 0.1669,-0.6136 v -0.6831 c 9e-4,-0.1678 -0.0357,-0.3337 -0.1073,-0.4863 z"
       inkscape:connector-curvature="0"
       style="fill:#d5e6fb" />
    <path
       id="path86"
       d="m 268.46,157.873 c -4.027,0 -4.027,6.09 0,6.09 4.028,0 4.039,-6.09 0,-6.09 z"
       inkscape:connector-curvature="0"
       style="fill:#d5e6fb" />
    <path
       id="path88"
       d="m 307.993,116.132 c -4.027,0 -4.039,6.079 0,6.079 4.039,0 3.98,-6.079 0,-6.079 z"
       inkscape:connector-curvature="0"
       style="fill:#d5e6fb" />
    <path
       id="path90"
       d="m 216.596,212.234 c -0.089,-0.217 -0.223,-0.414 -0.393,-0.579 -0.17,-0.166 -0.373,-0.296 -0.596,-0.382 -0.225,-0.112 -0.474,-0.168 -0.727,-0.162 l -0.5,0.069 c -0.313,0.084 -0.597,0.248 -0.822,0.475 l -0.298,0.359 c -0.168,0.281 -0.259,0.6 -0.262,0.926 v 0.683 c -0.006,0.245 0.051,0.488 0.167,0.706 0.075,0.227 0.211,0.431 0.393,0.591 0.364,0.321 0.831,0.509 1.322,0.533 l 0.501,-0.07 c 0.312,-0.079 0.596,-0.239 0.822,-0.463 l 0.298,-0.371 c 0.169,-0.281 0.26,-0.6 0.262,-0.926 v -0.683 c 0.006,-0.245 -0.052,-0.488 -0.167,-0.706 z"
       inkscape:connector-curvature="0"
       style="fill:#d5e6fb" />
    <path
       id="path92"
       d="m 281.781,18.8729 c -1.801,0.0455 -3.573,0.4574 -5.2,1.2093 -1.628,0.7518 -3.075,1.8269 -4.248,3.1558 -5.84,-4.1263 -13.115,-5.8563 -20.255,-4.8167 -3.2,0.254 -6.239,1.4678 -8.698,3.4736 -0.81,0.741 -4.194,7.6186 -3.813,7.526 -4.313,1.0536 -7.053,5.7892 -6.434,10.027 0.415,2.1273 1.396,4.1121 2.844,5.7573 1.449,1.6452 3.315,2.8936 5.413,3.6213 1.385,0.4914 2.808,0.8785 4.254,1.1578 -1.951,2.639 -4.372,4.9173 -7.149,6.7271 2.309,-0.0341 4.585,-0.5392 6.681,-1.4827 2.096,-0.9434 3.964,-2.3041 5.484,-3.9939 2.085,0.7526 3.991,1.9104 6.041,2.7325 5.016,2.0378 10.723,2.0147 16.025,1.0073 3.853,-0.5906 7.496,-2.0981 10.604,-4.3882 1.542,-1.1538 2.784,-2.6432 3.627,-4.3485 0.842,-1.7053 1.261,-3.5789 1.222,-5.4701 4.766,1.3084 9.448,-3.4735 9.389,-8.2902 -0.084,-8.3249 -8.09,-13.9405 -15.787,-13.6047 z"
       inkscape:connector-curvature="0"
       style="fill:#ffffff" />
    <path
       id="path94"
       d="m 238.531,57.244 c -0.128,8e-4 -0.252,-0.0382 -0.355,-0.1111 -0.103,-0.073 -0.179,-0.176 -0.217,-0.2941 -0.035,-0.1187 -0.031,-0.2452 0.012,-0.3615 0.042,-0.1163 0.122,-0.2166 0.226,-0.2869 2.453,-1.6077 4.618,-3.5946 6.41,-5.8819 -1.169,-0.2365 -2.32,-0.5538 -3.443,-0.9494 -2.2,-0.7609 -4.155,-2.0708 -5.669,-3.7983 -1.515,-1.7275 -2.534,-3.8118 -2.957,-6.0435 -0.667,-4.5619 2.275,-9.2628 6.481,-10.5595 0.432,-1.19 0.946,-2.3505 1.537,-3.4736 0.654,-1.4317 1.452,-2.7969 2.383,-4.0756 2.564,-2.0797 5.727,-3.3375 9.055,-3.6009 7.114,-1.0506 14.37,0.6086 20.255,4.6314 1.222,-1.2788 2.694,-2.3065 4.332,-3.0224 1.637,-0.716 3.405,-1.1056 5.2,-1.1459 4.412,-0.127 8.697,1.451 11.914,4.3883 1.392,1.2529 2.509,2.7667 3.283,4.4501 0.774,1.6834 1.19,3.5017 1.221,5.3453 -0.022,1.4504 -0.381,2.8772 -1.049,4.1742 -0.669,1.297 -1.629,2.4308 -2.811,3.317 -0.76,0.6096 -1.641,1.0601 -2.588,1.3231 -0.947,0.263 -1.94,0.3329 -2.917,0.2053 -0.097,1.8512 -0.601,3.6607 -1.479,5.3065 -0.877,1.6458 -2.108,3.0897 -3.608,4.2342 -3.178,2.3604 -6.914,3.909 -10.866,4.504 -6.244,1.1579 -11.748,0.8337 -16.371,-1.0305 -0.941,-0.382 -1.847,-0.822 -2.717,-1.262 -0.869,-0.44 -1.93,-0.9379 -2.931,-1.3316 -1.57,1.6645 -3.474,2.9995 -5.595,3.9233 -2.12,0.9239 -4.413,1.417 -6.736,1.4492 z m 1.191,-27.2789 c -3.848,0.9494 -6.589,5.245 -5.957,9.3901 0.39,2.0279 1.323,3.9199 2.706,5.4852 1.383,1.5653 3.166,2.7485 5.169,3.4303 1.354,0.4891 2.744,0.8762 4.159,1.1578 0.096,0.0175 0.186,0.0586 0.261,0.1194 0.075,0.0608 0.133,0.1393 0.168,0.228 0.038,0.0902 0.052,0.1882 0.042,0.2852 -0.011,0.0969 -0.046,0.1899 -0.102,0.2706 -1.595,2.1075 -3.484,3.9896 -5.612,5.5924 3.755,-0.5501 7.19,-2.3707 9.699,-5.1409 0.08,-0.0878 0.185,-0.1494 0.303,-0.1763 0.117,-0.027 0.24,-0.0179 0.352,0.0258 1.188,0.4429 2.346,0.9572 3.467,1.5399 0.858,0.4169 1.74,0.8568 2.633,1.1579 4.409,1.7831 9.675,2.1073 15.692,0.961 3.723,-0.5431 7.251,-1.9709 10.27,-4.1567 1.463,-1.1 2.643,-2.516 3.445,-4.1358 0.803,-1.6198 1.206,-3.3989 1.178,-5.1964 -0.005,-0.0934 0.011,-0.1868 0.048,-0.2731 0.037,-0.0863 0.094,-0.1632 0.167,-0.2248 0.075,-0.0561 0.162,-0.0946 0.255,-0.1127 0.093,-0.0181 0.189,-0.0152 0.281,0.0085 0.905,0.2283 1.854,0.2424 2.766,0.0409 0.912,-0.2014 1.761,-0.6125 2.476,-1.1988 1.039,-0.7748 1.884,-1.7677 2.472,-2.9046 0.588,-1.1368 0.904,-2.3882 0.924,-3.6604 -0.027,-1.6878 -0.405,-3.3528 -1.112,-4.8949 -0.706,-1.5421 -1.726,-2.9294 -2.999,-4.0784 -1.472,-1.3518 -3.204,-2.4077 -5.098,-3.1072 -1.893,-0.6994 -3.91,-1.0285 -5.935,-0.9684 -1.72,0.0415 -3.412,0.434 -4.965,1.1521 -1.554,0.7181 -2.935,1.7457 -4.054,3.0161 -0.099,0.111 -0.238,0.1811 -0.389,0.1961 -0.15,0.0151 -0.301,-0.0261 -0.421,-0.115 -5.718,-4.063 -12.862,-5.7538 -19.862,-4.7009 -3.068,0.2649 -5.978,1.4367 -8.34,3.3578 -1.443,2.2039 -2.671,4.5335 -3.67,6.9586 0.029,0.1427 -0.002,0.2904 -0.084,0.4116 -0.083,0.1211 -0.211,0.2062 -0.357,0.2368 z"
       inkscape:connector-curvature="0"
       style="fill:#d5e6fb" />
    <path
       id="path96"
       d="m 265.565,91.4585 c -0.845,-0.0046 -1.67,-0.2523 -2.37,-0.7118 -0.7,-0.4595 -1.245,-1.1103 -1.565,-1.8702 -0.32,-0.7599 -0.401,-1.595 -0.233,-2.3997 0.167,-0.8048 0.577,-1.5433 1.176,-2.1223 0.599,-0.579 1.361,-0.9726 2.19,-1.1311 0.829,-0.1586 1.688,-0.0749 2.468,0.2404 0.78,0.3153 1.447,0.848 1.916,1.5311 0.469,0.683 0.719,1.4858 0.719,2.3069 0,0.5478 -0.111,1.0902 -0.328,1.596 -0.216,0.5059 -0.533,0.9651 -0.933,1.3514 -0.4,0.3863 -0.874,0.692 -1.396,0.8995 -0.521,0.2076 -1.08,0.3128 -1.644,0.3098 z m 0,-7.1555 c -0.609,0.0045 -1.204,0.1843 -1.708,0.5166 -0.504,0.3323 -0.896,0.8022 -1.126,1.3505 -0.23,0.5484 -0.288,1.1506 -0.166,1.7308 0.122,0.5802 0.418,1.1124 0.85,1.5294 0.433,0.4171 0.983,0.7004 1.581,0.8143 0.597,0.1138 1.217,0.0531 1.779,-0.1745 0.563,-0.2277 1.043,-0.612 1.381,-1.1047 0.338,-0.4926 0.519,-1.0715 0.519,-1.6636 0,-0.3958 -0.081,-0.7876 -0.237,-1.153 -0.157,-0.3653 -0.386,-0.697 -0.675,-0.9757 -0.29,-0.2788 -0.633,-0.4992 -1.01,-0.6485 -0.377,-0.1494 -0.781,-0.2247 -1.188,-0.2216 z"
       inkscape:connector-curvature="0"
       style="fill:#d5e6fb" />
    <path
       id="path98"
       d="m 166.674,8.3133 c -0.845,-0.00458 -1.67,-0.25225 -2.37,-0.71176 -0.7,-0.45951 -1.245,-1.11029 -1.565,-1.87021 -0.32,-0.75993 -0.401,-1.59496 -0.234,-2.39974 0.168,-0.80479 0.577,-1.54327 1.176,-2.12228 0.6,-0.579009 1.362,-0.972597 2.191,-1.1311152 0.829,-0.1585184 1.688,-0.07486495 2.468,0.2404132 0.78,0.315278 1.447,0.848052 1.916,1.531102 0.469,0.68305 0.719,1.48578 0.719,2.30691 0,0.54781 -0.112,1.09023 -0.328,1.59605 -0.216,0.50583 -0.534,0.96509 -0.933,1.35138 -0.4,0.38629 -0.874,0.69198 -1.396,0.89951 -0.522,0.20752 -1.081,0.31279 -1.644,0.30974 z m 0,-7.15551 c -0.61,0.00457 -1.204,0.18433 -1.708,0.51661 -0.505,0.33228 -0.896,0.80222 -1.126,1.35057 -0.23,0.54835 -0.288,1.15057 -0.166,1.73076 0.122,0.58018 0.417,1.11235 0.85,1.52943 0.432,0.41708 0.982,0.7004 1.58,0.81425 0.598,0.11384 1.217,0.05312 1.78,-0.17452 0.562,-0.22764 1.043,-0.61201 1.381,-1.10465 0.338,-0.49264 0.518,-1.0715 0.518,-1.66362 0,-0.39577 -0.08,-0.78763 -0.237,-1.15298 -0.156,-0.36535 -0.386,-0.69698 -0.675,-0.97575 -0.289,-0.27877 -0.632,-0.49918 -1.009,-0.64851 -0.377,-0.14934 -0.781,-0.22465 -1.188,-0.22159 z"
       inkscape:connector-curvature="0"
       style="fill:#d5e6fb" />
    <path
       id="path100"
       d="m 31.6809,122.744 c -0.6066,0.002 -1.2002,-0.171 -1.7056,-0.497 -0.5054,-0.326 -0.8997,-0.791 -1.1329,-1.335 -0.2333,-0.544 -0.2949,-1.143 -0.1771,-1.722 0.1177,-0.578 0.4096,-1.109 0.8386,-1.526 0.4289,-0.417 0.9756,-0.701 1.5707,-0.815 0.5951,-0.115 1.2117,-0.055 1.7717,0.172 0.56,0.227 1.0382,0.61 1.3737,1.101 0.3356,0.491 0.5134,1.068 0.5111,1.657 0,0.787 -0.3214,1.541 -0.8934,2.096 -0.572,0.556 -1.3478,0.869 -2.1568,0.869 z m 0,-4.782 c -0.3704,-0.003 -0.7332,0.102 -1.0424,0.3 -0.3092,0.199 -0.5508,0.482 -0.6942,0.814 -0.1434,0.332 -0.1822,0.698 -0.1114,1.051 0.0709,0.353 0.2481,0.678 0.5092,0.934 0.2611,0.255 0.5944,0.429 0.9576,0.5 0.3632,0.072 0.7399,0.036 1.0824,-0.101 0.3425,-0.137 0.6354,-0.37 0.8414,-0.669 0.2061,-0.3 0.3161,-0.652 0.3161,-1.012 0.0016,-0.238 -0.0453,-0.474 -0.138,-0.694 -0.0927,-0.221 -0.2294,-0.421 -0.4021,-0.59 -0.1728,-0.169 -0.3782,-0.303 -0.6045,-0.395 -0.2263,-0.091 -0.469,-0.138 -0.7141,-0.138 z"
       inkscape:connector-curvature="0"
       style="fill:#d5e6fb" />
    <path
       id="path102"
       d="m 207.124,11.0227 c -0.332,0 -0.65,0.128 -0.885,0.356 -0.234,0.228 -0.366,0.5373 -0.366,0.8597 0,0.3224 0.132,0.6317 0.366,0.8597 0.235,0.228 0.553,0.356 0.885,0.356 0.332,0 0.65,-0.128 0.885,-0.356 0.234,-0.228 0.366,-0.5373 0.366,-0.8597 0,-0.3224 -0.132,-0.6317 -0.366,-0.8597 -0.235,-0.228 -0.553,-0.356 -0.885,-0.356 z"
       inkscape:connector-curvature="0"
       style="fill:#d5e6fb" />
    <path
       id="path104"
       d="m 107.72,12.551 c -3.229,0 -3.229,4.863 0,4.863 3.229,0 3.229,-4.863 0,-4.863 z"
       inkscape:connector-curvature="0"
       style="fill:#d5e6fb" />
    <path
       id="path106"
       d="M 82.068,208.367 H 49.4457 c -0.158,0 -0.3095,-0.061 -0.4212,-0.17 -0.1118,-0.109 -0.1745,-0.256 -0.1745,-0.409 0.003,-0.153 0.0668,-0.299 0.1778,-0.406 0.1111,-0.108 0.2609,-0.17 0.4179,-0.173 h 32.658 c 0.158,0 0.3095,0.061 0.4212,0.169 0.1118,0.109 0.1745,0.256 0.1745,0.41 2e-4,0.079 -0.0164,0.157 -0.0485,0.229 -0.0321,0.073 -0.0792,0.139 -0.1384,0.193 -0.0592,0.054 -0.1291,0.096 -0.2056,0.123 -0.0764,0.027 -0.1578,0.038 -0.2389,0.034 z"
       inkscape:connector-curvature="0"
       style="fill:#d5e6fb" />
    <path
       id="path108"
       d="M 73.0009,218.266 H 49.4457 c -0.158,0 -0.3095,-0.061 -0.4212,-0.169 -0.1118,-0.109 -0.1745,-0.256 -0.1745,-0.41 0.003,-0.152 0.0668,-0.298 0.1778,-0.406 0.1111,-0.108 0.2609,-0.17 0.4179,-0.173 h 23.591 c 0.158,0 0.3095,0.061 0.4212,0.17 0.1117,0.108 0.1745,0.256 0.1745,0.409 10e-5,0.079 -0.0164,0.157 -0.0485,0.23 -0.0322,0.073 -0.0793,0.138 -0.1384,0.192 -0.0592,0.055 -0.1292,0.096 -0.2056,0.123 -0.0765,0.027 -0.1578,0.039 -0.239,0.034 z"
       inkscape:connector-curvature="0"
       style="fill:#d5e6fb" />
    <path
       id="path110"
       d="m 276.753,209.791 h -37.245 c -0.158,0 -0.31,-0.061 -0.421,-0.17 -0.112,-0.108 -0.175,-0.256 -0.175,-0.409 0.003,-0.153 0.067,-0.298 0.178,-0.406 0.111,-0.108 0.261,-0.17 0.418,-0.173 h 37.245 c 0.157,0.003 0.307,0.065 0.418,0.173 0.111,0.108 0.175,0.253 0.178,0.406 0,0.153 -0.063,0.301 -0.175,0.409 -0.112,0.109 -0.263,0.17 -0.421,0.17 z"
       inkscape:connector-curvature="0"
       style="fill:#d5e6fb" />
    <path
       id="path112"
       d="m 270.545,220.478 h -31.037 c -0.157,-0.003 -0.307,-0.065 -0.418,-0.173 -0.111,-0.108 -0.175,-0.254 -0.178,-0.406 0,-0.154 0.063,-0.301 0.175,-0.41 0.111,-0.108 0.263,-0.169 0.421,-0.169 h 31.037 c 0.158,0 0.31,0.061 0.422,0.169 0.111,0.109 0.174,0.256 0.174,0.41 -0.003,0.152 -0.067,0.298 -0.178,0.406 -0.111,0.108 -0.261,0.17 -0.418,0.173 z"
       inkscape:connector-curvature="0"
       style="fill:#d5e6fb" />
    <path
       id="path114"
       d="M 71.6069,13.0836 H 41.9871 c -0.158,0 -0.3095,-0.061 -0.4213,-0.1695 -0.1117,-0.1086 -0.1744,-0.2559 -0.1744,-0.4094 0,-0.1535 0.0627,-0.3008 0.1744,-0.4094 0.1118,-0.1085 0.2633,-0.1695 0.4213,-0.1695 h 29.6198 c 0.158,0 0.3095,0.061 0.4212,0.1695 0.1117,0.1086 0.1745,0.2559 0.1745,0.4094 0,0.1535 -0.0628,0.3008 -0.1745,0.4094 -0.1117,0.1085 -0.2632,0.1695 -0.4212,0.1695 z"
       inkscape:connector-curvature="0"
       style="fill:#d5e6fb" />
    <path
       id="path116"
       d="M 71.6069,20.216 H 41.9871 c -0.158,0 -0.3095,-0.061 -0.4213,-0.1696 -0.1117,-0.1085 -0.1744,-0.2558 -0.1744,-0.4093 0,-0.1536 0.0627,-0.3008 0.1744,-0.4094 0.1118,-0.1086 0.2633,-0.1696 0.4213,-0.1696 h 29.6198 c 0.158,0 0.3095,0.061 0.4212,0.1696 0.1117,0.1086 0.1745,0.2558 0.1745,0.4094 0,0.1535 -0.0628,0.3008 -0.1745,0.4093 -0.1117,0.1086 -0.2632,0.1696 -0.4212,0.1696 z"
       inkscape:connector-curvature="0"
       style="fill:#d5e6fb" />
    <path
       id="path118"
       d="M 71.6069,27.3136 H 41.9871 c -0.158,0 -0.3095,-0.061 -0.4213,-0.1696 -0.1117,-0.1085 -0.1744,-0.2558 -0.1744,-0.4093 0,-0.1536 0.0627,-0.3008 0.1744,-0.4094 0.1118,-0.1085 0.2633,-0.1695 0.4213,-0.1695 h 29.6198 c 0.158,0 0.3095,0.061 0.4212,0.1695 0.1117,0.1086 0.1745,0.2558 0.1745,0.4094 0,0.1535 -0.0628,0.3008 -0.1745,0.4093 -0.1117,0.1086 -0.2632,0.1696 -0.4212,0.1696 z"
       inkscape:connector-curvature="0"
       style="fill:#d5e6fb" />
    <path
       id="path120"
       d="M 64.6249,34.4112 H 41.9871 c -0.158,0 -0.3095,-0.061 -0.4213,-0.1695 -0.1117,-0.1086 -0.1744,-0.2559 -0.1744,-0.4094 0,-0.1535 0.0627,-0.3008 0.1744,-0.4094 0.1118,-0.1085 0.2633,-0.1695 0.4213,-0.1695 h 22.6378 c 0.158,0 0.3095,0.061 0.4212,0.1695 0.1117,0.1086 0.1745,0.2559 0.1745,0.4094 -0.003,0.1526 -0.0668,0.2981 -0.1779,0.4061 -0.111,0.1079 -0.2608,0.1699 -0.4178,0.1728 z"
       inkscape:connector-curvature="0"
       style="fill:#d5e6fb" />
    <path
       id="path122"
       d="m 252.483,35.708 c -0.316,0 -0.619,0.122 -0.843,0.3391 -0.223,0.2172 -0.349,0.5117 -0.349,0.8188 0,0.307 0.126,0.6015 0.349,0.8187 0.224,0.2171 0.527,0.3391 0.843,0.3391 0.316,0 0.619,-0.122 0.842,-0.3391 0.224,-0.2172 0.349,-0.5117 0.349,-0.8187 0,-0.3071 -0.125,-0.6016 -0.349,-0.8188 -0.223,-0.2171 -0.526,-0.3391 -0.842,-0.3391 z"
       inkscape:connector-curvature="0"
       style="fill:#d5e6fb" />
    <path
       id="path124"
       d="m 264.409,35.708 c -0.316,0 -0.619,0.122 -0.842,0.3391 -0.224,0.2172 -0.349,0.5117 -0.349,0.8188 0,0.307 0.125,0.6015 0.349,0.8187 0.223,0.2171 0.526,0.3391 0.842,0.3391 0.316,0 0.619,-0.122 0.843,-0.3391 0.223,-0.2172 0.349,-0.5117 0.349,-0.8187 0,-0.3071 -0.126,-0.6016 -0.349,-0.8188 -0.224,-0.2171 -0.527,-0.3391 -0.843,-0.3391 z"
       inkscape:connector-curvature="0"
       style="fill:#d5e6fb" />
    <path
       id="path126"
       d="m 276.336,35.708 c -0.316,0 -0.619,0.122 -0.843,0.3391 -0.223,0.2172 -0.349,0.5117 -0.349,0.8188 0,0.307 0.126,0.6015 0.349,0.8187 0.224,0.2171 0.527,0.3391 0.843,0.3391 0.316,0 0.619,-0.122 0.842,-0.3391 0.224,-0.2172 0.349,-0.5117 0.349,-0.8187 0,-0.3071 -0.125,-0.6016 -0.349,-0.8188 -0.223,-0.2171 -0.526,-0.3391 -0.842,-0.3391 z"
       inkscape:connector-curvature="0"
       style="fill:#d5e6fb" />
  </g>
</svg>
