<?xml version="1.0" encoding="UTF-8" standalone="no"?>
<svg
   xmlns:dc="http://purl.org/dc/elements/1.1/"
   xmlns:cc="http://creativecommons.org/ns#"
   xmlns:rdf="http://www.w3.org/1999/02/22-rdf-syntax-ns#"
   xmlns:svg="http://www.w3.org/2000/svg"
   xmlns="http://www.w3.org/2000/svg"
   xmlns:sodipodi="http://sodipodi.sourceforge.net/DTD/sodipodi-0.dtd"
   xmlns:inkscape="http://www.inkscape.org/namespaces/inkscape"
   width="300"
   height="300"
   viewBox="0 0 300 300"
   version="1.1"
   id="svg8"
   sodipodi:docname="xr.svg"
   inkscape:version="0.92.4 (5da689c313, 2019-01-14)">
  <metadata
     id="metadata14">
    <rdf:RDF>
      <cc:Work
         rdf:about="">
        <dc:format>image/svg+xml</dc:format>
        <dc:type
           rdf:resource="http://purl.org/dc/dcmitype/StillImage" />
        <dc:title>Logo_mask copy@3x</dc:title>
      </cc:Work>
    </rdf:RDF>
  </metadata>
  <defs
     id="defs12" />
  <sodipodi:namedview
     pagecolor="#ffffff"
     bordercolor="#666666"
     borderopacity="1"
     objecttolerance="10"
     gridtolerance="10"
     guidetolerance="10"
     inkscape:pageopacity="0"
     inkscape:pageshadow="2"
     inkscape:window-width="1920"
     inkscape:window-height="1023"
     id="namedview10"
     showgrid="false"
     inkscape:zoom="0.63459804"
     inkscape:cx="-179.38259"
     inkscape:cy="151.67962"
     inkscape:window-x="0"
     inkscape:window-y="0"
     inkscape:window-maximized="1"
     inkscape:current-layer="svg8"
     fit-margin-top="0"
     fit-margin-left="0"
     fit-margin-right="0"
     fit-margin-bottom="0" />
  <title
     id="title2">Logo_mask copy@3x</title>
  <g
     id="g866"
     inkscape:export-xdpi="320"
     inkscape:export-ydpi="320">
    <rect
       y="0"
       x="0"
       height="300"
       width="300"
       id="rect859"
       style="fill:#c80082;fill-opacity:1;stroke-width:11.33858299;stroke-linecap:round;stroke-linejoin:round" />
    <g
       transform="matrix(1.1804074,0,0,1.1804074,39.631908,110.45635)"
       style="fill:none;fill-rule:evenodd;stroke:none;stroke-width:0.84716511"
       id="Symbols">
      <g
         style="fill:#ffffff;fill-rule:nonzero;stroke-width:0.84716511"
         transform="translate(-1168,-15)"
         id="Top_menu">
        <g
           style="stroke-width:0.84716511"
           transform="translate(1168,15)"
           id="Logo_mask-copy">
          <path
             style="stroke-width:0.84716511"
             inkscape:connector-curvature="0"
             id="SVGID_1_"
             d="m 81.260165,38.967818 v 10.84214 c 0,0.370733 0.303156,0.673941 0.68161,0.673941 h 0.01375 c 0.37387,0 0.678336,0.30191 0.678336,0.671993 v 1.836133 c 0,0.369434 -0.304466,0.671993 -0.678336,0.671993 h -8.694614 c -0.37518,0 -0.6803,-0.302559 -0.6803,-0.671993 v -1.836133 c 0,-0.370083 0.30512,-0.671993 0.6803,-0.671993 h 3.008642 c 0.37387,0 0.67899,-0.303208 0.67899,-0.673941 v -8.328821 c 0,-0.372031 -0.30512,-0.67459 -0.67899,-0.67459 h -3.008642 c -0.37518,0 -0.6803,-0.300612 -0.6803,-0.673292 V 37.98872 c 0,-0.116219 0.06155,-0.216206 0.145358,-0.283081 L 0,29.910517 V 58.506914 H 93.597233 V 39.945616 L 81.607191,38.660713 c -0.183335,-0.02143 -0.347026,0.122712 -0.347026,0.307105 M 29.243733,14.106015 v 16.888132 l 19.877987,2.131549 c 0.184643,0.01883 0.343096,-0.123361 0.343096,-0.309051 V 22.366662 c 0,-0.371381 -0.300537,-0.671993 -0.674407,-0.671993 h -2.686498 c -0.377144,0 -0.67899,-0.303858 -0.67899,-0.675239 v -1.834185 c 0,-0.371382 0.301846,-0.671993 0.67899,-0.671993 h 8.506697 c 0.37518,0 0.680955,0.300611 0.680955,0.671993 v 1.834185 c 0,0.371381 -0.305775,0.675239 -0.680955,0.675239 h -0.148632 c -0.377798,0 -0.681609,0.300612 -0.681609,0.671993 v 10.977189 c 0,0.158421 0.119167,0.294119 0.278275,0.311 l 7.025619,0.752502 c -0.05107,-0.06103 -0.08119,-0.136346 -0.08119,-0.218803 v -9.178714 c 0,-2.461378 -0.4603,-3.315167 -2.129293,-3.315167 h -1.583875 c -0.377799,0 -0.680955,-0.303858 -0.680955,-0.675239 v -1.834185 c 0,-0.371382 0.303156,-0.671993 0.680955,-0.671993 h 2.715307 c 4.473349,0 5.308828,1.790034 5.308828,6.334916 v 9.028733 c 0,0.374628 -0.30381,0.67459 -0.67899,0.67459 H 62.427183 L 107.60395,39.39179 V 14.106015 Z m 49.683508,19.770886 c 0,0.374628 -0.303156,0.67459 -0.678336,0.67459 h -4.598409 c -0.377144,0 -0.680955,-0.299962 -0.680955,-0.67459 v -1.834185 c 0,-0.368135 0.303811,-0.671993 0.680955,-0.671993 h 0.365358 c 0.378454,0 0.678991,-0.303209 0.678991,-0.674591 v -6.756291 c 0,-1.791333 -0.348335,-2.352301 -1.614649,-2.352301 h -0.43018 l -1.23554,12.356235 c -0.03601,0.344762 -0.326727,0.608365 -0.675062,0.608365 h -2.808283 c -0.40399,0 -0.718277,-0.34606 -0.675062,-0.744062 L 68.470002,22.44003 c 0.04256,-0.397353 -0.271728,-0.744062 -0.674407,-0.744062 h -0.02095 c -0.37518,0 -0.678336,-0.303858 -0.678336,-0.67524 v -1.834184 c 0,-0.371382 0.303156,-0.671994 0.678336,-0.671994 h 5.76258 c 4.20555,0 5.391328,1.736795 5.391328,6.656305 v 8.706046 z m 6.46776,0 c 0,0.374628 -0.30381,0.67459 -0.677681,0.67459 h -2.952331 c -0.37518,0 -0.678336,-0.299962 -0.678336,-0.67459 v -8.64956 c 0,-0.370733 0.303156,-0.673292 0.678336,-0.673292 h 2.952331 c 0.373871,0 0.677681,0.302559 0.677681,0.673292 z m 6.577762,0 c 0,0.374628 -0.303811,0.67459 -0.680955,0.67459 h -2.954296 c -0.373216,0 -0.678336,-0.299962 -0.678336,-0.67459 V 22.366662 c 0,-0.371381 -0.301846,-0.671993 -0.67899,-0.671993 h -5.245971 c -0.371906,0 -0.678991,-0.303858 -0.678991,-0.675239 v -1.834185 c 0,-0.371382 0.307085,-0.671993 0.678991,-0.671993 h 9.557593 c 0.377144,0 0.680955,0.300611 0.680955,0.671993 z M 187,33.499675 C 187,14.997461 171.87429,0 153.21548,0 134.55797,0 119.43292,14.99811 119.43488,33.499675 119.43292,51.999942 134.55797,67 153.21548,67 171.87822,67 187,51.999942 187,33.499675 m -33.78452,28.342533 c -7.15723,0 -13.69243,-2.617202 -18.71055,-6.928997 h 0.38435 1.62905 32.82399 2.20459 0.38369 c -5.01418,4.311795 -11.55528,6.928997 -18.71512,6.928997 m 0,-24.193055 10.59932,12.086788 h -21.19144 z m 0,-8.305448 -10.59016,-12.080945 h 21.18293 z M 132.48237,14.002132 149.5763,33.496429 132.48237,52.993972 c -4.85835,-5.080528 -7.84604,-11.939404 -7.84604,-19.494297 0,-7.556191 2.98834,-14.416365 7.84604,-19.497543 m 20.73311,-8.8423925 c 7.15984,0 13.70094,2.6133071 18.71512,6.9257505 h -3.58352 v 0.0019 h -30.25797 v -0.0019 h -3.58418 c 5.01812,-4.3124434 11.55397,-6.9257505 18.71055,-6.9257505 m 28.58438,28.3399355 c 0,7.554893 -2.98769,14.413769 -7.84866,19.494297 l -17.09196,-19.497543 17.09,-19.494297 c 4.86228,5.081178 7.85062,11.941352 7.85062,19.497543 M 16.058747,52.992025 c 0,0.369434 -0.305775,0.671993 -0.678991,0.671993 h -2.958224 c -0.373871,0 -0.677027,-0.302559 -0.677027,-0.671993 v -8.650858 c 0,-0.37333 0.303156,-0.673292 0.677027,-0.673292 h 2.958224 c 0.372561,0 0.678991,0.299962 0.678991,0.673292 z m 6.575142,0 c 0,0.369434 -0.303156,0.671993 -0.678991,0.671993 h -2.952986 c -0.375835,0 -0.678991,-0.302559 -0.678991,-0.671993 V 41.481137 c 0,-0.372031 -0.305775,-0.67459 -0.681609,-0.67459 h -5.245316 c -0.371251,0 -0.679645,-0.300612 -0.679645,-0.673292 v -1.832886 c 0,-0.371382 0.308394,-0.672642 0.679645,-0.672642 h 9.558902 c 0.375835,0 0.678991,0.30126 0.678991,0.672642 z m 11.5926,-12.85877 c 0,0.37268 -0.305775,0.673292 -0.679645,0.673292 h -0.15256 c -0.373216,0 -0.678991,0.302559 -0.678991,0.67459 v 11.510888 c 0,0.369434 -0.305775,0.671993 -0.67899,0.671993 h -2.953642 c -0.37518,0 -0.67899,-0.302559 -0.67899,-0.671993 V 41.481137 c 0,-0.372031 -0.30512,-0.67459 -0.678991,-0.67459 h -2.685842 c -0.373871,0 -0.678991,-0.300612 -0.678991,-0.673292 v -1.832886 c 0,-0.371382 0.30512,-0.672642 0.678991,-0.672642 h 8.50866 c 0.373216,0 0.679646,0.30126 0.679646,0.672642 v 1.832886 z m 13.019331,12.85877 c 0,0.369434 -0.303156,0.671993 -0.67899,0.671993 h -2.958225 c -0.37387,0 -0.67899,-0.302559 -0.67899,-0.671993 v -9.43063 c 0,-2.246471 -0.403335,-2.754848 -1.80584,-2.754848 h -0.07399 c -0.377799,0 -0.678991,0.302559 -0.678991,0.67459 v 11.510888 c 0,0.369434 -0.303811,0.671993 -0.67899,0.671993 H 36.7362 c -0.375835,0 -0.67899,-0.302559 -0.67899,-0.671993 V 38.29972 c 0,-0.371382 0.303155,-0.672643 0.67899,-0.672643 h 5.388055 c 3.66406,0 5.12222,1.336196 5.12222,6.067418 v 9.29753 z M 57.72794,48.15692 c 0,4.331921 -1.697803,5.507098 -5.092101,5.507098 h -2.991618 c -0.369941,0 -0.675061,-0.302559 -0.675061,-0.671993 v -1.836133 c 0,-0.370083 0.30512,-0.671993 0.675061,-0.671993 h 1.238814 c 2.075603,0 2.533938,-0.481108 2.533938,-2.64577 v -4.385162 c 0,-2.164663 -0.458335,-2.64642 -2.533938,-2.64642 h -1.238814 c -0.369941,0 -0.675061,-0.300612 -0.675061,-0.673292 v -1.832886 c 0,-0.371382 0.30512,-0.672642 0.675061,-0.672642 h 2.991618 c 3.394952,0 5.092101,1.175176 5.092101,5.503852 z m 6.334189,4.835105 c 0,0.369434 -0.303156,0.671993 -0.68161,0.671993 h -2.952986 c -0.373216,0 -0.6803,-0.302559 -0.6803,-0.671993 v -8.650858 c 0,-0.37333 0.307084,-0.673292 0.6803,-0.673292 h 2.952986 c 0.378454,0 0.68161,0.299962 0.68161,0.673292 z m 6.579071,0 c 0,0.369434 -0.30512,0.671993 -0.678991,0.671993 h -2.95757 c -0.373215,0 -0.67899,-0.302559 -0.67899,-0.671993 V 41.481137 c 0,-0.372031 -0.300537,-0.67459 -0.677026,-0.67459 h -5.247281 c -0.375179,0 -0.678335,-0.300612 -0.678335,-0.673292 v -1.832886 c 0,-0.371382 0.303156,-0.672642 0.678335,-0.672642 h 9.560867 c 0.373871,0 0.678991,0.30126 0.678991,0.672642 z" />
        </g>
      </g>
    </g>
  </g>
</svg>
